<?xml version="1.0" standalone="no"?>
<!DOCTYPE svg PUBLIC "-//W3C//DTD SVG 20010904//EN"
 "http://www.w3.org/TR/2001/REC-SVG-20010904/DTD/svg10.dtd">
<svg version="1.0" xmlns="http://www.w3.org/2000/svg"
 width="300.000000pt" height="332.000000pt" viewBox="0 0 300.000000 332.000000"
 preserveAspectRatio="xMidYMid meet">
<metadata>
Created by potrace 1.10, written by Peter Selinger 2001-2011
</metadata>
<g transform="translate(0.000000,332.000000) scale(0.100000,-0.100000)"
fill="#000000" stroke="none">
<path d="M1295 2660 c-292 -58 -545 -296 -595 -560 -9 -47 -14 -851 -6 -930
10 -97 106 -270 198 -356 157 -149 305 -212 538 -228 207 -15 446 75 599 224
84 82 91 92 135 181 65 133 66 141 66 639 0 470 -3 503 -46 597 -108 231 -303
379 -562 429 -78 15 -260 17 -327 4z m380 -34 c88 -23 231 -97 302 -156 99
-82 169 -184 216 -315 20 -57 21 -81 25 -490 4 -483 0 -519 -63 -650 -67 -139
-181 -251 -330 -325 -116 -58 -216 -81 -355 -81 -150 -1 -238 19 -370 84 -90
44 -117 63 -190 136 -87 87 -130 154 -173 268 -20 56 -21 75 -25 497 -3 373
-1 451 13 511 60 271 308 491 610 538 60 10 281 -1 340 -17z"/>
<path d="M1290 2614 c-274 -59 -494 -266 -546 -515 -12 -60 -15 -149 -12 -509
l3 -435 26 -67 c87 -224 271 -383 514 -443 94 -24 285 -24 380 0 199 49 385
188 474 355 66 124 71 166 71 624 0 505 -6 540 -111 697 -91 135 -284 261
-451 294 -95 18 -261 18 -348 -1z m359 -30 c36 -8 109 -35 161 -61 79 -38 108
-59 180 -132 60 -61 94 -105 117 -152 61 -126 63 -141 63 -606 0 -273 -4 -441
-11 -475 -47 -223 -244 -414 -500 -484 -89 -25 -299 -25 -389 0 -250 69 -438
245 -494 463 -23 86 -23 899 -1 983 28 105 73 180 164 271 120 120 257 187
423 208 83 11 205 4 287 -15z"/>
<path d="M1428 2428 c-3 -24 -4 -44 -2 -46 1 -2 14 7 28 19 29 25 34 54 10 63
-28 11 -32 7 -36 -36z m34 7 c0 -5 -5 -11 -11 -13 -6 -2 -11 4 -11 13 0 9 5
15 11 13 6 -2 11 -8 11 -13z"/>
<path d="M1326 2452 c-2 -4 -2 -26 1 -49 4 -34 9 -40 24 -36 11 3 19 9 19 14
0 5 -7 6 -15 3 -21 -8 -19 13 3 25 16 10 16 10 0 11 -10 0 -18 3 -18 6 0 4 8
13 18 20 16 12 15 13 -5 14 -12 0 -24 -4 -27 -8z"/>
<path d="M1551 2447 c-6 -8 -13 -29 -16 -48 -3 -19 -3 -28 1 -21 3 6 12 12 19
12 7 0 15 -6 18 -12 2 -7 9 4 16 24 7 21 10 42 6 48 -9 14 -30 12 -44 -3z m29
-22 c0 -16 -6 -25 -15 -25 -18 0 -18 5 -5 31 14 26 20 24 20 -6z"/>
<path d="M1715 2440 c-3 -5 1 -10 10 -10 9 0 13 5 10 10 -3 6 -8 10 -10 10 -2
0 -7 -4 -10 -10z"/>
<path d="M1244 2426 c-3 -8 -12 -12 -20 -9 -11 4 -13 -2 -8 -28 9 -48 27 -74
20 -29 l-6 35 19 -22 c25 -30 37 -29 18 1 -9 13 -13 33 -10 45 6 23 -5 29 -13
7z"/>
<path d="M1662 2410 c-25 -24 -25 -25 -12 -51 11 -20 40 -27 40 -9 0 6 -7 10
-15 10 -17 0 -19 18 -6 39 5 8 18 12 30 8 24 -6 29 8 5 17 -20 8 -17 9 -42
-14z"/>
<path d="M1472 2029 c30 -11 49 -54 38 -85 -4 -11 -24 -32 -44 -48 -42 -32
-69 -79 -61 -106 7 -22 51 -60 69 -60 6 0 3 7 -6 14 -25 19 -23 31 15 73 53
60 67 85 67 120 0 40 -52 103 -84 102 -18 0 -18 -2 6 -10z m22 -165 c-16 -20
-37 -46 -46 -58 l-18 -21 0 24 c0 16 15 38 42 63 50 46 62 42 22 -8z"/>
<path d="M1565 1874 c4 -15 -5 -34 -30 -64 -40 -47 -39 -46 -20 -80 9 -15 15
-19 15 -10 0 8 14 33 30 54 33 44 38 73 14 102 -15 19 -15 19 -9 -2z"/>
<path d="M793 1790 c0 -41 2 -58 4 -37 2 20 2 54 0 75 -2 20 -4 3 -4 -38z"/>
<path d="M870 1615 c0 -90 4 -145 10 -145 6 0 10 55 10 145 0 90 -4 145 -10
145 -6 0 -10 -55 -10 -145z"/>
<path d="M2055 1615 c0 -80 3 -145 8 -145 4 0 7 65 7 145 0 80 -3 145 -7 145
-5 0 -8 -65 -8 -145z"/>
<path d="M1263 1626 c19 -49 28 -151 22 -239 -5 -71 -3 -102 5 -112 10 -12 47
-15 191 -15 l179 0 16 25 c11 17 14 36 10 55 -5 26 -3 30 18 30 32 0 75 36 92
76 21 50 18 137 -5 165 -19 24 -20 24 -276 27 -225 3 -257 1 -252 -12z m486
-17 c18 -7 31 -18 30 -27 0 -10 -3 -12 -5 -5 -3 7 -21 17 -41 24 -52 17 -65
-1 -71 -99 -4 -75 -3 -81 18 -92 l23 -12 -21 -17 c-14 -10 -22 -30 -24 -56
l-3 -40 -175 0 -175 0 2 45 c4 119 2 210 -7 240 -7 25 -6 36 3 42 19 12 409
10 446 -3z m-3 -45 c22 -21 25 -31 19 -62 -7 -41 -28 -66 -62 -77 -22 -6 -23
-4 -23 48 0 116 18 140 66 91z"/>
<path d="M1687 923 c-4 -3 -7 -11 -7 -17 0 -6 5 -5 12 2 6 6 9 14 7 17 -3 3
-9 2 -12 -2z"/>
<path d="M1212 859 c-13 -22 -20 -44 -16 -47 4 -4 9 -2 11 4 2 6 10 20 18 30
13 17 14 16 5 -13 -5 -20 -5 -33 1 -33 5 0 12 12 15 28 4 15 14 33 23 40 14
11 13 12 -6 7 -14 -4 -22 -1 -25 9 -2 10 -12 1 -26 -25z"/>
<path d="M1667 883 c-13 -12 -7 -60 8 -73 15 -13 45 -7 45 8 0 5 -10 8 -22 8
-33 -1 -38 41 -6 53 22 9 22 10 2 10 -11 1 -24 -2 -27 -6z"/>
<path d="M1321 824 c-11 -30 -11 -38 0 -45 19 -12 29 -11 29 1 0 6 -4 10 -10
10 -18 0 -11 20 8 21 10 0 12 3 5 6 -22 8 -15 35 7 28 11 -4 20 -2 20 4 0 6
-10 11 -23 11 -17 0 -26 -9 -36 -36z"/>
<path d="M1546 844 c-16 -42 1 -99 18 -61 5 10 7 10 12 0 10 -23 24 -14 24 16
0 42 -9 61 -30 61 -10 0 -21 -7 -24 -16z m34 -19 c0 -14 -4 -25 -10 -25 -11 0
-14 33 -3 43 11 11 13 8 13 -18z"/>
<path d="M1430 828 c0 -13 -3 -33 -6 -45 -4 -14 -2 -23 5 -23 6 0 11 6 11 14
0 7 9 16 21 19 29 8 22 51 -8 55 -18 3 -23 -1 -23 -20z m33 -13 c-3 -8 -9 -15
-14 -15 -10 0 -12 24 -3 33 11 11 24 -3 17 -18z"/>
</g>
</svg>
